<mxfile host="app.diagrams.net" modified="2023-12-05T18:37:18.609Z" agent="Mozilla/5.0 (Macintosh; Intel Mac OS X 10_15_7) AppleWebKit/537.36 (KHTML, like Gecko) Chrome/119.0.0.0 Safari/537.36" version="22.1.5" etag="0wgKHoQP3lYHFxHf8NMQ" type="github">
  <diagram name="Page-1" id="CViqYzpjwRyfgwd9qCFd">
    <mxGraphModel>
      <root>
        <mxCell id="0" />
        <mxCell id="1" parent="0" />
      </root>
    </mxGraphModel>
  </diagram>
</mxfile>
